<svg width="86" height="86" viewBox="0 0 86 86" fill="none" xmlns="http://www.w3.org/2000/svg">
<g filter="url(#filter0_d)">
<circle cx="43" cy="33" r="33" fill="#3EB959"/>
<path d="M44.2956 23.7013C44.9136 23.7013 45.4146 23.2003 45.4146 22.5823C45.4146 21.9644 44.9136 21.4634 44.2956 21.4634H30.5227C29.9047 21.4634 29.4037 21.9644 29.4037 22.5823C29.4037 23.2003 29.9047 23.7013 30.5227 23.7013H44.2956Z" fill="#F8F7F2"/>
<path d="M60.7598 28.8133H51.1322V14.8018C51.1322 14.1839 50.6312 13.6829 50.0133 13.6829H24.8036C24.1856 13.6829 23.6846 14.1839 23.6846 14.8018V29.9369C23.6846 30.5549 24.1856 31.0559 24.8036 31.0559H28.1536V35.6277C28.1536 36.0703 28.4145 36.4713 28.8192 36.6506C28.9648 36.7151 29.1192 36.7466 29.2724 36.7466C29.5451 36.7466 29.8142 36.647 30.0241 36.4567L34.4312 32.4616V45.0673C34.4312 45.6853 34.9322 46.1863 35.5502 46.1863H49.5815L55.5392 51.587C55.7492 51.7774 56.0183 51.877 56.291 51.877C56.4442 51.877 56.5986 51.8455 56.7442 51.781C57.1488 51.6016 57.4097 51.2006 57.4097 50.758V46.1863H60.7598C61.3778 46.1863 61.8788 45.6853 61.8788 45.0673V29.9322C61.8788 29.3143 61.3778 28.8133 60.7598 28.8133ZM29.2726 28.818H25.9226V15.9208H48.8943V28.8133H35.5503C35.2331 28.8133 34.9475 28.9458 34.7439 29.1577L30.3916 33.103V29.937C30.3916 29.319 29.8907 28.818 29.2726 28.818ZM59.6409 43.9484H56.2908C55.6729 43.9484 55.1719 44.4494 55.1719 45.0674V48.2334L50.7647 44.2383C50.5589 44.0517 50.2911 43.9483 50.0133 43.9483H36.6692V31.0559L59.6409 31.0512V43.9484Z" fill="#F8F7F2"/>
<path d="M41.2722 36.5939C40.6542 36.5939 40.1532 37.0949 40.1532 37.7128C40.1532 38.3308 40.6542 38.8318 41.2722 38.8318H55.0452C55.6632 38.8318 56.1642 38.3308 56.1642 37.7128C56.1642 37.0949 55.6632 36.5939 55.0452 36.5939H41.2722Z" fill="#F8F7F2"/>
</g>
<defs>
<filter id="filter0_d" x="0" y="0" width="86" height="86" filterUnits="userSpaceOnUse" color-interpolation-filters="sRGB">
<feFlood flood-opacity="0" result="BackgroundImageFix"/>
<feColorMatrix in="SourceAlpha" type="matrix" values="0 0 0 0 0 0 0 0 0 0 0 0 0 0 0 0 0 0 127 0"/>
<feOffset dy="10"/>
<feGaussianBlur stdDeviation="5"/>
<feColorMatrix type="matrix" values="0 0 0 0 0 0 0 0 0 0 0 0 0 0 0 0 0 0 0.05 0"/>
<feBlend mode="normal" in2="BackgroundImageFix" result="effect1_dropShadow"/>
<feBlend mode="normal" in="SourceGraphic" in2="effect1_dropShadow" result="shape"/>
</filter>
</defs>
</svg>
