<svg width="28" height="28" viewBox="0 0 28 28" fill="none" xmlns="http://www.w3.org/2000/svg">
<path d="M27.6 13.8C27.6 21.421 21.421 27.6 13.8 27.6C6.17833 27.6 0 21.4217 0 13.8C0 6.17833 6.17833 0 13.8 0C21.4217 0 27.6 6.17833 27.6 13.8Z" fill="#6DA544"/>
<path d="M13.7995 5.40002L25.1994 13.8L13.7995 22.1999L2.39972 13.8L13.7995 5.40002Z" fill="#FFDA44"/>
<path d="M18.6 13.8C18.6 16.4509 16.4511 18.5997 13.8003 18.5997C11.1495 18.5997 8.99994 16.4509 8.99994 13.8C8.99994 11.1492 11.1488 9.00037 13.8003 9.00037C16.4511 9.00037 18.6 11.1492 18.6 13.8Z" fill="#F0F0F0"/>
<path d="M11.4003 13.5001C10.5654 13.5001 9.76019 13.6268 9.00214 13.8626C9.03583 16.4845 11.1705 18.6003 13.8005 18.6003C15.4264 18.6003 16.863 17.7911 17.7316 16.5532C16.2458 14.6935 13.9602 13.5001 11.4003 13.5001Z" fill="#0052B4"/>
<path d="M18.5107 14.7198C18.5686 14.422 18.5996 14.1147 18.5996 13.8C18.5996 11.1492 16.4508 9.00037 13.7999 9.00037C11.8216 9.00037 10.1235 10.1971 9.38904 11.9059C10.0386 11.7711 10.7111 11.7004 11.3997 11.7004C14.188 11.6997 16.7102 12.8587 18.5107 14.7198Z" fill="#0052B4"/>
</svg>
