<svg width="23" height="23" viewBox="0 0 23 23" fill="none" xmlns="http://www.w3.org/2000/svg">
<path d="M15.4276 0.280518H7.20396C3.41978 0.280518 0.350891 3.34941 0.350891 7.13359V15.3573C0.350891 19.1415 3.41978 22.2103 7.20396 22.2103H15.4276C19.2118 22.2103 22.2807 19.1415 22.2807 15.3573V7.13359C22.2807 3.34941 19.2118 0.280518 15.4276 0.280518ZM20.2248 15.3573C20.2248 18.0026 18.0729 20.1544 15.4276 20.1544H7.20396C4.55868 20.1544 2.40681 18.0026 2.40681 15.3573V7.13359C2.40681 4.4883 4.55868 2.33644 7.20396 2.33644H15.4276C18.0729 2.33644 20.2248 4.4883 20.2248 7.13359V15.3573Z" fill="white"/>
<path d="M11.3185 5.76208C8.29074 5.76208 5.83606 8.21677 5.83606 11.2445C5.83606 14.2723 8.29074 16.727 11.3185 16.727C14.3463 16.727 16.801 14.2723 16.801 11.2445C16.801 8.21677 14.3463 5.76208 11.3185 5.76208ZM11.3185 14.6711C9.42964 14.6711 7.89198 13.1334 7.89198 11.2445C7.89198 9.35438 9.42964 7.81801 11.3185 7.81801C13.2074 7.81801 14.7451 9.35438 14.7451 11.2445C14.7451 13.1334 13.2074 14.6711 11.3185 14.6711Z" fill="white"/>
<path d="M17.3493 5.76288C17.652 5.76288 17.8975 5.51742 17.8975 5.21463C17.8975 4.91184 17.652 4.66638 17.3493 4.66638C17.0465 4.66638 16.801 4.91184 16.801 5.21463C16.801 5.51742 17.0465 5.76288 17.3493 5.76288Z" fill="white"/>
</svg>
