<svg width="25" height="25" viewBox="0 0 25 25" fill="none" xmlns="http://www.w3.org/2000/svg">
<path d="M24.1628 24.1465V24.1452H24.169V15.4377C24.169 11.1782 23.252 7.89624 18.2716 7.89624C15.8776 7.89624 14.2712 9.21013 13.6152 10.4554H13.5459V8.29381H8.82397V24.1452H13.7407V16.2965C13.7407 14.2301 14.1327 12.2318 16.6919 12.2318C19.2139 12.2318 19.251 14.59 19.251 16.4294V24.1465H24.1628Z" fill="#F8F7F2"/>
<path d="M5.7425 8.29504H0.81958V24.1465H5.7425V8.29504Z" fill="#F8F7F2"/>
<path d="M3.27995 0.403687C1.70637 0.403687 0.428955 1.6811 0.428955 3.25468C0.428955 4.82826 1.70637 6.13225 3.27995 6.13225C4.85352 6.13225 6.13094 4.82826 6.13094 3.25468C6.13032 1.6811 4.85291 0.403687 3.27995 0.403687Z" fill="#F8F7F2"/>
</svg>
