<svg width="29" height="21" viewBox="0 0 29 21" fill="none" xmlns="http://www.w3.org/2000/svg">
<path d="M14.2616 20.7712C14.2594 20.7712 14.2566 20.7712 14.2538 20.7712C13.393 20.765 5.78387 20.6958 3.62802 20.113C2.12138 19.7083 0.932372 18.5199 0.525987 17.0132C-0.0383751 14.8953 -0.0020903 10.8181 0.00181725 10.4926C-0.0020903 10.1689 -0.0383753 6.05756 0.524312 3.92236C0.52487 3.92013 0.525429 3.91845 0.525987 3.91622C0.927906 2.42689 2.14371 1.20159 3.62468 0.795762C3.62803 0.794646 3.63193 0.793529 3.63584 0.792971C5.76713 0.231958 13.3919 0.163855 14.2543 0.157715H14.27C15.133 0.163855 22.7622 0.233075 24.8985 0.816974C26.4012 1.22057 27.5897 2.40735 27.9966 3.91231C28.5816 6.04918 28.5275 10.1689 28.5219 10.5166C28.5258 10.8594 28.5604 14.8998 27.9994 17.0283C27.9989 17.0305 27.9983 17.0322 27.9977 17.0344C27.5914 18.5411 26.4023 19.729 24.894 20.1348C24.8918 20.1353 24.8901 20.1359 24.8879 20.1365C22.7566 20.6964 15.1319 20.765 14.27 20.7712C14.2672 20.7712 14.2644 20.7712 14.2616 20.7712Z" fill="#F8F7F2"/>
<path d="M11.4207 5.95178V14.9771L19.2207 10.4644L11.4207 5.95178Z" fill="#2D2926"/>
</svg>
