<svg width="191" height="76" viewBox="0 0 191 76" fill="none" xmlns="http://www.w3.org/2000/svg">
<path d="M52.1162 29.9544C51.8705 31.2926 51.1961 32.3904 50.0984 33.253C49.0006 34.1103 47.7355 34.5389 46.2927 34.5389C45.0277 34.5389 44.0762 34.1469 43.4751 33.3784C42.8687 32.6048 42.6753 31.5593 42.921 30.2419C43.1562 28.9664 43.7783 27.7693 44.7767 26.6663C45.7752 25.558 46.9932 24.7425 48.4203 24.1989C51.1543 23.1534 52.8533 22.4686 53.5538 22.1654L52.1162 29.9544ZM65.7496 33.7653C64.793 34.3612 64.0298 34.654 63.4809 34.654C62.2838 34.654 61.8133 33.9326 62.0799 32.4741L65.253 15.2023C65.7235 12.6512 64.9864 10.6961 63.0522 9.34744C61.1128 8.00919 58.0494 7.33484 53.8726 7.33484C49.5024 7.33484 44.9126 8.0876 40.1085 9.59314L40.4483 14.7161C42.4714 13.5713 44.139 12.7872 45.4354 12.369C46.7423 11.9508 48.1799 11.7417 49.7481 11.7417C51.4575 11.7417 52.7696 12.1076 53.6792 12.8185C54.5993 13.5295 54.9547 14.4704 54.7404 15.6309C54.547 16.6712 54.0399 17.5024 53.2192 18.1245C52.3828 18.7622 51.1125 19.285 49.4031 19.698C45.7804 20.5971 43.3235 21.2715 42.0375 21.7106C40.7358 22.1392 39.4342 22.7665 38.1378 23.5663C35.2731 25.3071 33.5584 27.7902 32.9625 31.0156C32.4188 33.9587 32.9939 36.3268 34.6667 38.1146C36.0467 39.5678 38.143 40.2945 40.9606 40.2945C43.4123 40.2945 45.6027 39.871 47.5526 39.0346C48.6712 38.5537 49.9363 37.7434 51.3425 36.5986C51.9437 37.9891 52.6912 38.9562 53.6008 39.4894C54.5104 40.0279 55.8853 40.2945 57.7149 40.2945C59.0479 40.2945 60.2084 40.1638 61.1598 39.9024C62.1112 39.6515 63.3554 39.1287 64.9028 38.3394L65.7496 33.7653Z" fill="#F8F7F2"/>
<path d="M23.7748 15.5258C20.1417 14.0934 17.873 12.9957 16.9477 12.2429C16.0224 11.4901 15.6931 10.4237 15.944 9.05932C16.1845 7.73675 16.9477 6.6442 18.2389 5.76597C19.5196 4.88775 21.0095 4.44341 22.6927 4.44341C25.5574 4.44341 28.6521 5.62483 31.9821 7.9929L34.7109 2.23739C31.0882 0.74231 27.3557 0 23.503 0C16.9215 0 11.8717 1.84009 8.34838 5.52551C6.53442 7.4231 5.41573 9.53503 4.98707 11.8926C4.53228 14.3444 4.96616 16.5242 6.2835 18.4114C7.47015 20.1156 9.87482 21.6995 13.4766 23.1737C16.8274 24.5433 18.861 25.4842 19.5719 25.9809C21.0774 27.0107 21.6577 28.396 21.344 30.1263C21.067 31.6423 20.2097 32.9021 18.7721 33.9372C17.2927 34.9827 15.4422 35.5107 13.1995 35.5107C10.5178 35.5107 8.087 34.7683 5.91235 33.2837C5.17004 32.7819 4.20294 32.0448 3.01106 31.0411L0 37.2567C2.4099 38.3963 4.5741 39.2013 6.49783 39.6613C8.41634 40.1213 10.6067 40.3461 13.0793 40.3461C20.0737 40.3461 25.3797 38.2813 28.9815 34.1567C30.785 32.0971 31.9141 29.7865 32.3794 27.225C32.8499 24.674 32.4996 22.447 31.313 20.5599C30.1629 18.7146 27.6537 17.0313 23.7748 15.5258Z" fill="#F8F7F2"/>
<path d="M126.399 23.8062C125.641 27.9412 124.46 31.1979 122.87 33.5608C122.301 34.4024 121.548 35.0872 120.612 35.6256C119.661 36.1641 118.741 36.4255 117.821 36.4255C116.88 36.4255 116.048 36.1641 115.29 35.6361C114.543 35.1186 114.046 34.4233 113.79 33.5608C113.074 31.1979 113.095 27.915 113.863 23.7173C114.616 19.6085 115.777 16.3935 117.334 14.0673C117.904 13.2309 118.662 12.5408 119.619 12.0076C120.565 11.4692 121.501 11.2078 122.416 11.2078C123.377 11.2287 124.224 11.4953 124.961 12.0076C125.698 12.5252 126.2 13.1995 126.451 14.0411C127.194 16.3256 127.173 19.5823 126.399 23.8062ZM134.93 11.6835C132.463 8.78223 128.532 7.32898 123.137 7.32898C120.335 7.34989 117.873 7.70013 115.761 8.37449C113.659 9.05407 111.704 10.1153 109.906 11.5737C106.21 14.5639 103.9 18.5368 102.995 23.4821C101.981 28.9867 102.917 33.2785 105.802 36.3732C108.254 38.9869 112.023 40.2938 117.115 40.2938C122.165 40.2938 126.389 39.0183 129.75 36.483C133.812 33.451 136.326 29.2376 137.325 23.8532C138.255 18.7198 137.46 14.6632 134.93 11.6835Z" fill="#F8F7F2"/>
<path d="M180.251 19.729H168.51C169.19 17.0211 170.173 14.9405 171.48 13.4925C172.786 12.034 174.313 11.3126 176.064 11.3126C177.261 11.3126 178.254 11.6942 179.044 12.4575C179.833 13.2207 180.293 14.2557 180.424 15.5469C180.513 16.5454 180.46 17.9307 180.251 19.729ZM190.335 14.6635C188.673 9.75482 184.35 7.3031 177.35 7.3031C172.07 7.3031 167.622 8.71454 164.02 11.5165C160.089 14.5851 157.627 18.8403 156.628 24.256C155.739 29.1072 156.571 32.9285 159.111 35.7095C161.897 38.7729 166.44 40.2993 172.729 40.2993C175.254 40.2993 177.47 40.1007 179.384 39.7243C181.302 39.3427 183.613 38.6265 186.32 37.5758L186.138 32.3639C182.379 34.9463 178.761 36.2375 175.285 36.2375C170.852 36.2375 168.228 34.5072 167.413 31.0518C167 29.2954 167.047 26.875 167.569 23.8012H190.56C190.832 22.1389 190.978 20.6176 190.983 19.248V19.086C190.978 17.3818 190.764 15.9076 190.335 14.6635Z" fill="#F8F7F2"/>
<path d="M90.1701 24.0577C89.4539 27.9784 88.4607 30.8692 87.1956 32.7459C85.9305 34.633 84.3414 35.5688 82.4124 35.5688C80.6194 35.5688 79.4379 34.8056 78.8734 33.2843C78.1677 31.4024 78.1833 28.4332 78.9361 24.3662C79.7411 19.975 80.7344 16.9274 81.921 15.2336C82.4542 14.4704 83.1861 13.8484 84.0904 13.357C84.9948 12.8708 85.9253 12.6251 86.8663 12.6251C87.7288 12.6617 88.4868 12.9074 89.1455 13.3674C89.8094 13.8274 90.2485 14.4338 90.4628 15.1761C91.0117 17.0476 90.9124 20.0116 90.1701 24.0577ZM91.4456 7.33484C87.5406 7.33484 84.1793 8.7515 81.3826 11.5953L82.0151 8.15556H71.4607C71.5966 8.71491 71.6019 9.34744 71.4607 10.0793L64.7381 46.6773C64.597 47.4405 64.3565 48.073 64.0272 48.5906H75.1827C75.0625 48.094 75.052 47.4562 75.1723 46.6773L76.9392 37.0586C78.6329 39.2176 81.1578 40.2945 84.4721 40.2945C86.4899 40.2945 88.445 39.9233 90.3374 39.1915C92.2297 38.4596 93.8503 37.4402 95.2042 36.1438C98.1787 33.3 100.155 29.1807 101.148 23.8068C102.152 18.3231 101.66 14.1097 99.6581 11.1771C97.9434 8.61559 95.2042 7.33484 91.4456 7.33484Z" fill="#F8F7F2"/>
<path d="M159.475 14.0313L160.703 7.33484C155.894 7.44462 152.747 8.82991 151.252 11.4803L151.869 8.15556H141.335C141.461 8.65741 141.466 9.28994 141.341 10.0845L136.244 37.8062C136.103 38.5485 135.867 39.1862 135.533 39.7194H146.678C146.563 39.2019 146.558 38.5642 146.673 37.8062L149.924 20.1057C150.682 15.9812 153.285 13.9163 157.755 13.9163C158.199 13.9111 158.764 13.9529 159.475 14.0313Z" fill="#F8F7F2"/>
<path d="M83.8104 54.6531H87.339L87.6997 52.813H84.1607L84.6259 50.4293H88.395L88.7557 48.5787H82.8015L80.8726 58.7411H83.042L83.8104 54.6531Z" fill="#F8F7F2"/>
<path d="M92.3763 52.8454C92.5854 52.8454 92.7997 52.8768 92.9617 52.9082L92.6167 54.6123C92.2874 56.4211 91.4876 57.1581 90.8394 57.1581C90.233 57.1581 89.9507 56.6615 89.9507 55.9349C89.9507 54.5653 90.9753 52.8454 92.3763 52.8454ZM89.9193 58.9041C90.7766 58.9041 91.7124 58.4964 92.3919 57.2784H92.439C92.3919 57.8064 92.3501 58.303 92.3344 58.7421H94.3418C94.3104 57.822 94.4464 56.374 94.6293 55.4226L95.4135 51.5647C94.7966 51.366 93.8452 51.204 92.9722 51.204C89.3391 51.204 87.6924 53.8596 87.6924 56.3427C87.6871 57.8848 88.5915 58.9041 89.9193 58.9041Z" fill="#F8F7F2"/>
<path d="M99.2638 53.1579C98.5529 53.7643 98.072 54.1982 97.4551 54.8464L95.0557 57.4235L94.8152 58.7357H100.937L101.282 56.9687H97.8263V56.9374C98.4902 56.3937 98.9711 55.9285 99.6193 55.2332L101.972 52.7292L102.212 51.3544H96.4514L96.1221 53.1056H99.2743L99.2638 53.1579Z" fill="#F8F7F2"/>
<path d="M105.763 52.7827C106.265 52.7827 106.563 53.0388 106.563 53.4152C106.563 54.0791 105.716 54.3196 104.033 54.3039C104.179 53.6139 104.754 52.7827 105.763 52.7827ZM104.937 58.8937C105.752 58.8937 106.824 58.7578 107.681 58.3187L107.53 56.7504C106.944 57.0379 106.265 57.2209 105.465 57.2209C104.832 57.2209 104.336 57.0222 104.048 56.6458C103.897 56.4367 103.823 56.1022 103.823 55.8931C106.777 55.9715 108.607 55.2919 108.607 53.4048C108.607 52.0299 107.535 51.204 106.04 51.204C103.374 51.204 101.743 53.5407 101.743 55.7885C101.738 57.7018 102.825 58.8937 104.937 58.8937Z" fill="#F8F7F2"/>
<path d="M110.506 58.7421L111.123 55.4697C111.426 53.8439 112.252 52.95 112.963 52.95C113.507 52.95 113.685 53.3107 113.685 53.823C113.685 54.0948 113.653 54.398 113.606 54.6542L112.838 58.7421H115.007L115.823 54.4607C115.88 54.1 115.943 53.5407 115.943 53.2114C115.943 51.9463 115.263 51.204 114.056 51.204C113.073 51.204 112.158 51.6274 111.463 52.5893H111.432L111.583 51.366H109.654C109.565 52.0143 109.445 52.8297 109.262 53.7602L108.327 58.7369H110.506V58.7421Z" fill="#F8F7F2"/>
<path d="M119.555 57.1572C118.923 57.1572 118.531 56.6606 118.531 55.7667C118.531 54.35 119.451 52.8393 120.747 52.8393C121.108 52.8393 121.442 52.9595 121.604 53.0954L121.228 55.0871C120.941 56.4933 120.172 57.1572 119.555 57.1572ZM122.885 58.7412C122.917 57.8682 123.047 56.8279 123.23 55.8765L124.72 48.0352H122.545L121.913 51.3703C121.594 51.2501 121.207 51.203 120.904 51.203C118.112 51.203 116.257 53.5554 116.257 56.1169C116.257 57.91 117.297 58.9084 118.546 58.9084C119.404 58.9084 120.313 58.5321 120.961 57.5493H120.993L120.888 58.7412H122.885Z" fill="#F8F7F2"/>
<path d="M127.375 57.247C126.622 57.247 126.199 56.6772 126.199 55.8147C126.183 54.6698 126.815 52.8402 128.07 52.8402C128.943 52.8402 129.231 53.5668 129.231 54.2464C129.231 55.5115 128.567 57.247 127.375 57.247ZM128.352 51.204C125.728 51.204 123.951 53.3002 123.951 55.8617C123.951 57.6861 125.2 58.9094 127.072 58.9094C129.633 58.9094 131.473 56.9334 131.473 54.236C131.473 52.5579 130.328 51.204 128.352 51.204Z" fill="#F8F7F2"/>
<path d="M138.668 52.8454C139.033 52.8454 139.363 52.9657 139.53 53.1016L139.154 55.0933C138.866 56.4943 138.098 57.1582 137.481 57.1582C136.848 57.1582 136.456 56.6616 136.456 55.7729C136.451 54.3562 137.371 52.8454 138.668 52.8454ZM136.482 58.9042C137.34 58.9042 138.244 58.5278 138.898 57.545H138.929L138.824 58.7369H140.816C140.847 57.8639 140.983 56.8236 141.161 55.8722L142.651 48.0309H140.482L139.849 51.3608C139.53 51.2406 139.138 51.1935 138.84 51.1935C136.049 51.1935 134.198 53.5459 134.198 56.1074C134.188 57.9109 135.228 58.9042 136.482 58.9042Z" fill="#F8F7F2"/>
<path d="M144.073 58.7414L145.474 51.3654H143.305L141.904 58.7414H144.073Z" fill="#F8F7F2"/>
<path d="M144.665 50.4456C145.36 50.4456 145.945 49.9909 145.945 49.2224C145.945 48.5742 145.491 48.1508 144.858 48.1508C144.194 48.1508 143.624 48.6474 143.609 49.3845C143.603 50.0379 144.058 50.4456 144.665 50.4456Z" fill="#F8F7F2"/>
<path d="M146.776 53.012L145.704 58.7414H147.858L148.929 53.012H150.378L150.696 51.3654H149.233L149.306 51.0047C149.442 50.2676 149.881 49.6455 150.576 49.6455C150.864 49.6455 151.088 49.6926 151.287 49.7814L151.663 48.0459C151.423 47.9413 151.031 47.8629 150.503 47.8629C149.782 47.8629 148.992 48.0616 148.407 48.5739C147.67 49.1907 147.319 50.1108 147.173 50.9733L147.095 51.3654H146.143L145.824 53.012H146.776Z" fill="#F8F7F2"/>
<path d="M154.057 52.7825C154.559 52.7825 154.857 53.0387 154.857 53.4151C154.857 54.079 154.015 54.3194 152.327 54.3037C152.473 53.6137 153.048 52.7825 154.057 52.7825ZM150.032 55.7831C150.032 57.6964 151.119 58.8883 153.226 58.8883C154.042 58.8883 155.113 58.7524 155.971 58.3133L155.819 56.745C155.233 57.0325 154.554 57.2103 153.754 57.2103C153.122 57.2103 152.625 57.0116 152.337 56.6352C152.186 56.4261 152.113 56.0916 152.113 55.8825C155.066 55.9609 156.896 55.2813 156.896 53.3942C156.896 52.0193 155.824 51.1934 154.334 51.1934C151.663 51.2038 150.032 53.5405 150.032 55.7831Z" fill="#F8F7F2"/>
<path d="M159.588 55.9976C159.86 54.5496 160.508 53.3159 161.894 53.3159C162.014 53.3159 162.134 53.3159 162.239 53.3316L162.662 51.2197C162.526 51.204 162.39 51.204 162.254 51.204C161.245 51.204 160.414 51.8992 159.902 52.8768H159.855C159.902 52.3645 159.944 51.8679 159.991 51.3713H158.104C158.031 52.0038 157.942 53.2375 157.727 54.3562L156.901 58.7421H159.071L159.588 55.9976Z" fill="#F8F7F2"/>
<path d="M166.062 52.7827C166.558 52.7827 166.862 53.0388 166.862 53.4152C166.862 54.0791 166.015 54.3196 164.331 54.3039C164.478 53.6139 165.053 52.7827 166.062 52.7827ZM165.231 58.8937C166.046 58.8937 167.118 58.7578 167.975 58.3187L167.823 56.7504C167.233 57.0379 166.553 57.2209 165.759 57.2209C165.126 57.2209 164.629 57.0222 164.342 56.6458C164.19 56.4367 164.117 56.1022 164.117 55.8931C167.071 55.9715 168.9 55.2919 168.9 53.4048C168.9 52.0299 167.829 51.204 166.334 51.204C163.668 51.204 162.037 53.5407 162.037 55.7885C162.037 57.7018 163.119 58.8937 165.231 58.8937Z" fill="#F8F7F2"/>
<path d="M170.92 58.7421L171.537 55.4697C171.84 53.8439 172.666 52.95 173.377 52.95C173.921 52.95 174.099 53.3107 174.099 53.823C174.099 54.0948 174.067 54.398 174.02 54.6542L173.252 58.7421H175.426L176.242 54.4607C176.299 54.1 176.362 53.5407 176.362 53.2114C176.362 51.9463 175.683 51.204 174.475 51.204C173.492 51.204 172.577 51.6274 171.882 52.5893H171.851L172.002 51.366H170.073C169.985 52.0143 169.864 52.8297 169.681 53.7602L168.746 58.7369H170.92V58.7421Z" fill="#F8F7F2"/>
<path d="M177.405 55.9509C177.301 56.5103 177.254 56.918 177.254 57.3206C177.254 58.2406 177.871 58.9045 179.167 58.9045C179.638 58.9045 180.176 58.847 180.448 58.7372L180.704 57.033C180.505 57.0644 180.296 57.0644 180.098 57.0644C179.632 57.0644 179.481 56.8083 179.481 56.4476C179.481 56.1914 179.543 55.815 179.601 55.5118L180.098 53.0078H181.666L181.985 51.3664H180.416L180.809 49.3015L178.592 49.8138L178.289 51.3664H177.337L177.034 53.0078H177.97L177.405 55.9509Z" fill="#F8F7F2"/>
<path d="M185.462 52.7827C185.958 52.7827 186.261 53.0388 186.261 53.4152C186.261 54.0791 185.414 54.3196 183.731 54.3039C183.883 53.6139 184.453 52.7827 185.462 52.7827ZM184.636 58.8937C185.451 58.8937 186.523 58.7578 187.38 58.3187L187.228 56.7504C186.643 57.0379 185.963 57.2209 185.164 57.2209C184.531 57.2209 184.034 57.0222 183.747 56.6458C183.595 56.4367 183.522 56.1022 183.522 55.8931C186.476 55.9715 188.305 55.2919 188.305 53.4048C188.305 52.0299 187.234 51.204 185.744 51.204C183.073 51.204 181.447 53.5407 181.447 55.7885C181.436 57.7018 182.524 58.8937 184.636 58.8937Z" fill="#F8F7F2"/>
<path d="M188.497 60.3991C189.386 59.2229 190.306 57.6389 191.001 56.1021L188.649 56.2536C188.257 57.6233 187.593 59.1915 186.929 60.535L188.497 60.3991Z" fill="#F8F7F2"/>
<path d="M76.5708 64.6647H75.107L75.1855 64.304C75.3214 63.5669 75.7605 62.9448 76.4558 62.9448C76.7433 62.9448 76.9681 62.9919 77.1615 63.0807L77.5379 61.3452C77.2974 61.2406 76.9053 61.1622 76.3773 61.1622C75.6559 61.1622 74.8666 61.3557 74.2811 61.8732C73.5388 62.49 73.1938 63.4101 73.0422 64.2674L72.969 64.6595H72.0176L71.6987 66.3061H72.6501L71.5785 72.0355H73.7322L74.8039 66.3061H76.2519L76.5708 64.6647Z" fill="#F8F7F2"/>
<path d="M80.7741 67.9058C80.4396 69.7145 79.645 70.4516 78.9968 70.4516C78.3956 70.4516 78.1081 69.955 78.1081 69.2284C78.1081 67.8535 79.1327 66.1389 80.5337 66.1389C80.7428 66.1389 80.9571 66.1702 81.1244 66.2016L80.7741 67.9058ZM83.5604 64.8581C82.9436 64.6595 81.9922 64.4974 81.1192 64.4974C77.486 64.4974 75.8394 67.153 75.8394 69.6361C75.8394 71.173 76.7437 72.1976 78.0715 72.1976C78.9288 72.1976 79.8646 71.7899 80.5441 70.5718H80.5912C80.5441 71.0998 80.5023 71.5964 80.4866 72.0355H82.4888C82.4574 71.1155 82.5933 69.6675 82.7763 68.7161L83.5604 64.8581Z" fill="#F8F7F2"/>
<path d="M85.9785 70.2426C86.6424 69.6989 87.1233 69.2336 87.7716 68.5384L90.1239 66.0344L90.3644 64.6595H84.6037L84.2743 66.4108H87.4265L87.4109 66.4578C86.6999 67.059 86.219 67.4981 85.6021 68.1463L83.2027 70.7235L82.9622 72.0356H89.0837L89.4287 70.2739H85.9733V70.2426H85.9785Z" fill="#F8F7F2"/>
<path d="M93.9121 66.0814C94.4139 66.0814 94.7119 66.3375 94.7119 66.7139C94.7119 67.3778 93.8651 67.6183 92.1818 67.6026C92.3334 66.9126 92.9032 66.0814 93.9121 66.0814ZM96.7507 66.6982C96.7507 65.3234 95.679 64.4974 94.1839 64.4974C91.5179 64.4974 89.8869 66.8341 89.8869 69.082C89.8869 70.9953 90.9742 72.1871 93.0809 72.1871C93.8964 72.1871 94.9681 72.0512 95.8254 71.6173L95.6738 70.0491C95.0883 70.3366 94.4087 70.5143 93.6089 70.5143C92.9764 70.5143 92.4798 70.3157 92.1922 69.9393C92.0406 69.7302 91.9675 69.3956 91.9675 69.1865C94.9262 69.2597 96.7507 68.5854 96.7507 66.6982Z" fill="#F8F7F2"/>
<path d="M102.215 64.4974C101.232 64.4974 100.317 64.9209 99.6217 65.8827H99.5903L99.7419 64.6595H97.813C97.7241 65.3077 97.6039 66.1232 97.4209 67.0589L96.4852 72.0355H98.6546L99.2714 68.7631C99.5746 67.1373 100.401 66.2434 101.112 66.2434C101.655 66.2434 101.833 66.6041 101.833 67.1164C101.833 67.3883 101.802 67.6915 101.755 67.9476L100.986 72.0355H103.161L103.976 67.7542C104.034 67.3935 104.096 66.8341 104.096 66.5048C104.102 65.2345 103.422 64.4974 102.215 64.4974Z" fill="#F8F7F2"/>
<path d="M109.374 68.3868C109.086 69.7877 108.318 70.4516 107.701 70.4516C107.069 70.4516 106.677 69.955 106.677 69.0663C106.677 67.6497 107.597 66.1389 108.893 66.1389C109.254 66.1389 109.588 66.2591 109.75 66.3951L109.374 68.3868ZM110.702 61.3296L110.069 64.6595C109.75 64.5393 109.358 64.4922 109.06 64.4922C106.269 64.4922 104.418 66.8446 104.418 69.4061C104.418 71.1992 105.459 72.1976 106.708 72.1976C107.565 72.1976 108.47 71.8212 109.123 70.8385H109.154L109.05 72.0303H111.042C111.073 71.1573 111.204 70.1171 111.387 69.1656L112.876 61.3243H110.702V61.3296Z" fill="#F8F7F2"/>
<path d="M115.522 70.5405C114.77 70.5405 114.346 69.9707 114.346 69.1081C114.331 67.9633 114.963 66.1389 116.218 66.1389C117.091 66.1389 117.378 66.8603 117.378 67.5399C117.378 68.8102 116.714 70.5405 115.522 70.5405ZM116.505 64.4974C113.881 64.4974 112.104 66.5937 112.104 69.1552C112.104 70.9796 113.353 72.2028 115.224 72.2028C117.791 72.2028 119.626 70.2268 119.626 67.5294C119.621 65.8566 118.476 64.4974 116.505 64.4974Z" fill="#F8F7F2"/>
<path d="M127.026 67.9058C126.692 69.7145 125.892 70.4568 125.249 70.4568C124.648 70.4568 124.36 69.955 124.36 69.2336C124.36 67.8587 125.385 66.1441 126.786 66.1441C126.995 66.1441 127.209 66.1755 127.376 66.2068L127.026 67.9058ZM122.091 69.6361C122.091 71.173 122.996 72.1976 124.324 72.1976C125.181 72.1976 126.117 71.7899 126.796 70.5718H126.843C126.796 71.0998 126.754 71.5964 126.739 72.0355H128.746C128.715 71.1155 128.851 69.6675 129.034 68.7161L129.818 64.8581C129.201 64.6595 128.249 64.4974 127.376 64.4974C123.738 64.4974 122.091 67.153 122.091 69.6361Z" fill="#F8F7F2"/>
<path d="M136.982 68.3868C136.695 69.7877 135.926 70.4516 135.31 70.4516C134.677 70.4516 134.285 69.955 134.285 69.0663C134.285 67.6497 135.205 66.1389 136.501 66.1389C136.862 66.1389 137.197 66.2591 137.359 66.3951L136.982 68.3868ZM138.31 61.3296L137.678 64.6595C137.359 64.5393 136.967 64.4922 136.669 64.4922C133.877 64.4922 132.027 66.8446 132.027 69.4061C132.027 71.1992 133.067 72.1976 134.316 72.1976C135.174 72.1976 136.078 71.8212 136.731 70.8385H136.763L136.658 72.0303H138.65C138.681 71.1573 138.812 70.1171 138.995 69.1656L140.485 61.3243H138.31V61.3296Z" fill="#F8F7F2"/>
<path d="M139.744 72.0356H141.914L143.32 64.6595H141.145L139.744 72.0356Z" fill="#F8F7F2"/>
<path d="M142.704 61.4496C142.04 61.4496 141.465 61.9462 141.455 62.6885C141.455 63.3367 141.91 63.7445 142.511 63.7445C143.206 63.7445 143.792 63.2897 143.792 62.5212C143.786 61.873 143.337 61.4496 142.704 61.4496Z" fill="#F8F7F2"/>
<path d="M148.537 64.6647H147.073L147.152 64.304C147.287 63.5669 147.727 62.9448 148.417 62.9448C148.704 62.9448 148.929 62.9919 149.128 63.0807L149.504 61.3452C149.263 61.2406 148.871 61.1622 148.343 61.1622C147.622 61.1622 146.833 61.3557 146.247 61.8732C145.505 62.49 145.16 63.4101 145.008 64.2674L144.935 64.6595H143.984L143.665 66.3061H144.616L143.545 72.0355H145.698L146.77 66.3061H148.218L148.537 64.6647Z" fill="#F8F7F2"/>
<path d="M150.162 67.6026C150.314 66.9073 150.883 66.0814 151.892 66.0814C152.389 66.0814 152.692 66.3375 152.692 66.7139C152.697 67.3778 151.851 67.6183 150.162 67.6026ZM152.169 64.4974C149.503 64.4974 147.872 66.8341 147.872 69.082C147.872 70.9953 148.96 72.1871 151.072 72.1871C151.887 72.1871 152.959 72.0512 153.816 71.6173L153.665 70.0491C153.079 70.3366 152.399 70.5143 151.6 70.5143C150.967 70.5143 150.471 70.3157 150.183 69.9393C150.031 69.7302 149.958 69.3956 149.958 69.1865C152.912 69.265 154.736 68.5854 154.736 66.6982C154.731 65.3286 153.659 64.4974 152.169 64.4974Z" fill="#F8F7F2"/>
<path d="M160.505 64.5131C160.37 64.4974 160.234 64.4974 160.098 64.4974C159.089 64.4974 158.258 65.1927 157.745 66.1703H157.698C157.745 65.658 157.787 65.1613 157.834 64.6595H155.947C155.869 65.292 155.78 66.5309 155.571 67.6444L154.745 72.0303H156.914L157.426 69.2859C157.698 67.8378 158.346 66.6041 159.732 66.6041C159.852 66.6041 159.972 66.6041 160.077 66.6198L160.505 64.5131Z" fill="#F8F7F2"/>
<path d="M163.906 66.0814C164.402 66.0814 164.706 66.3375 164.706 66.7139C164.706 67.3778 163.859 67.6183 162.175 67.6026C162.327 66.9126 162.897 66.0814 163.906 66.0814ZM166.744 66.6982C166.744 65.3234 165.673 64.4974 164.183 64.4974C161.512 64.4974 159.886 66.8341 159.886 69.082C159.886 70.9953 160.973 72.1871 163.08 72.1871C163.895 72.1871 164.967 72.0512 165.824 71.6173L165.673 70.0491C165.087 70.3366 164.408 70.5143 163.608 70.5143C162.975 70.5143 162.479 70.3157 162.191 69.9393C162.039 69.7302 161.966 69.3956 161.966 69.1865C164.915 69.2597 166.744 68.5854 166.744 66.6982Z" fill="#F8F7F2"/>
<path d="M172.33 64.4974C171.347 64.4974 170.432 64.9209 169.737 65.8827H169.706L169.857 64.6595H167.928C167.84 65.3077 167.719 66.1232 167.536 67.0589L166.601 72.0355H168.77L169.387 68.7631C169.685 67.1373 170.516 66.2434 171.227 66.2434C171.771 66.2434 171.948 66.6041 171.948 67.1164C171.948 67.3883 171.917 67.6915 171.87 67.9476L171.101 72.0355H173.276L174.092 67.7542C174.149 67.3935 174.212 66.8341 174.212 66.5048C174.217 65.2345 173.538 64.4974 172.33 64.4974Z" fill="#F8F7F2"/>
<path d="M179.399 66.2331C179.838 66.2331 180.141 66.3115 180.392 66.4161L180.936 64.759C180.607 64.623 180.063 64.5028 179.43 64.5028C176.623 64.5028 174.621 66.552 174.621 69.1762C174.621 70.7602 175.525 71.9782 177.23 72.1611L176.487 73.2642C177.303 73.3217 177.575 73.5203 177.575 73.8078C177.575 74.0953 177.303 74.2313 177.031 74.2313C176.791 74.2313 176.472 74.1424 176.205 73.9908L175.844 74.8481C176.085 75.0311 176.581 75.1513 177.083 75.1513C177.867 75.1513 178.923 74.7906 178.923 73.7346C178.923 73.2223 178.531 72.8303 178.003 72.71L178.364 72.1821C178.829 72.1507 179.42 71.9991 179.828 71.8057L179.812 70.1642C179.436 70.3158 178.986 70.4622 178.348 70.4622C177.533 70.4622 176.9 69.9499 176.9 68.941C176.895 67.5452 177.862 66.2331 179.399 66.2331Z" fill="#F8F7F2"/>
<path d="M185.435 67.9058C185.1 69.7145 184.306 70.4516 183.658 70.4516C183.056 70.4516 182.769 69.955 182.769 69.2284C182.769 67.8535 183.793 66.1389 185.194 66.1389C185.404 66.1389 185.618 66.1702 185.78 66.2016L185.435 67.9058ZM188.221 64.8581C187.604 64.6595 186.653 64.4974 185.78 64.4974C182.147 64.4974 180.505 67.153 180.505 69.6361C180.505 71.173 181.41 72.1976 182.737 72.1976C183.595 72.1976 184.531 71.7899 185.21 70.5718H185.257C185.21 71.0998 185.168 71.5964 185.153 72.0355H187.16C187.129 71.1155 187.265 69.6675 187.448 68.7161L188.221 64.8581Z" fill="#F8F7F2"/>
<path d="M189.532 69.3955C188.659 69.3955 188.068 70.1012 188.068 70.9324C188.068 71.6538 188.549 72.1818 189.292 72.1818C190.149 72.1818 190.781 71.5649 190.781 70.671C190.781 69.9287 190.269 69.3955 189.532 69.3955Z" fill="#F8F7F2"/>
</svg>
