<svg width="191" height="49" viewBox="0 0 191 49" fill="none" xmlns="http://www.w3.org/2000/svg">
<path d="M52.1196 29.9545C51.8739 31.2928 51.1996 32.3906 50.1018 33.2531C49.004 34.1105 47.7389 34.5391 46.296 34.5391C45.031 34.5391 44.0795 34.1471 43.4783 33.3786C42.8719 32.6049 42.6785 31.5594 42.9242 30.242C43.1595 28.9665 43.7816 27.7693 44.78 26.6663C45.7785 25.558 46.9966 24.7425 48.4237 24.1989C51.1578 23.1533 52.8567 22.4685 53.5572 22.1653L52.1196 29.9545ZM65.7533 33.7654C64.7967 34.3614 64.0335 34.6542 63.4845 34.6542C62.2874 34.6542 61.8169 33.9327 62.0835 32.4742L65.2567 15.2021C65.7272 12.651 64.9901 10.6958 63.0559 9.34712C61.1164 8.00884 58.053 7.33447 53.8761 7.33447C49.5058 7.33447 44.916 8.08725 40.1117 9.59282L40.4515 14.7159C42.4746 13.5711 44.1423 12.7869 45.4387 12.3687C46.7456 11.9505 48.1832 11.7414 49.7515 11.7414C51.461 11.7414 52.7731 12.1073 53.6827 12.8183C54.6028 13.5292 54.9583 14.4702 54.7439 15.6307C54.5505 16.671 54.0434 17.5022 53.2227 18.1243C52.3863 18.7621 51.1159 19.2849 49.4065 19.6979C45.7837 20.597 43.3267 21.2714 42.0407 21.7105C40.7391 22.1392 39.4374 22.7665 38.1409 23.5663C35.2762 25.3071 33.5615 27.7903 32.9656 31.0157C32.4219 33.9589 32.9969 36.327 34.6698 38.1149C36.0499 39.5681 38.1461 40.2948 40.9639 40.2948C43.4156 40.2948 45.606 39.8713 47.5559 39.0349C48.6746 38.554 49.9397 37.7437 51.346 36.5988C51.9471 37.9894 52.6947 38.9565 53.6043 39.4897C54.5139 40.0282 55.8888 40.2948 57.7185 40.2948C59.0515 40.2948 60.212 40.1641 61.1635 39.9027C62.1149 39.6518 63.3591 39.129 64.9065 38.3396L65.7533 33.7654Z" fill="#F8F7F2"/>
<path d="M23.7753 15.5261C20.1421 14.0937 17.8733 12.9959 16.948 12.2431C16.0227 11.4904 15.6934 10.4239 15.9443 9.05951C16.1848 7.73691 16.948 6.64434 18.2393 5.76609C19.52 4.88785 21.0099 4.4435 22.6932 4.4435C25.558 4.4435 28.6527 5.62495 31.9827 7.99307L34.7116 2.23743C31.0888 0.742326 27.3563 0 23.5035 0C16.9219 0 11.872 1.84013 8.34855 5.52562C6.53456 7.42325 5.41584 9.53522 4.98717 11.8929C4.53237 14.3447 4.96626 16.5246 6.28363 18.4118C7.47031 20.116 9.87502 21.7 13.4769 23.1741C16.8278 24.5438 18.8613 25.4848 19.5723 25.9814C21.0779 27.0112 21.6581 28.3966 21.3445 30.1269C21.0674 31.6429 20.2101 32.9028 18.7725 33.9379C17.2931 34.9834 15.4425 35.5114 13.1998 35.5114C10.518 35.5114 8.08717 34.7691 5.91247 33.2844C5.17014 32.7826 4.20303 32.0455 3.01112 31.0418L0 37.2574C2.40995 38.397 4.57419 39.2021 6.49796 39.6621C8.41651 40.1222 10.6069 40.347 13.0796 40.347C20.0742 40.347 25.3802 38.282 28.9821 34.1574C30.7856 32.0977 31.9148 29.7871 32.38 27.2256C32.8505 24.6745 32.5003 22.4475 31.3136 20.5603C30.1635 18.715 27.6542 17.0317 23.7753 15.5261Z" fill="#F8F7F2"/>
<path d="M126.398 23.8066C125.64 27.9417 124.459 31.1985 122.869 33.5614C122.3 34.4031 121.547 35.0879 120.611 35.6263C119.66 36.1648 118.74 36.4262 117.82 36.4262C116.879 36.4262 116.047 36.1648 115.289 35.6368C114.542 35.1193 114.045 34.424 113.789 33.5614C113.073 31.1985 113.094 27.9156 113.862 23.7178C114.615 19.6088 115.776 16.3938 117.333 14.0675C117.903 13.2311 118.661 12.5411 119.618 12.0078C120.564 11.4694 121.5 11.208 122.415 11.208C123.377 11.2289 124.223 11.4955 124.961 12.0078C125.698 12.5254 126.2 13.1997 126.45 14.0414C127.193 16.3259 127.172 19.5827 126.398 23.8066ZM134.93 11.6837C132.462 8.78239 128.531 7.3291 123.136 7.3291C120.334 7.35001 117.872 7.70026 115.76 8.37463C113.658 9.05422 111.703 10.1154 109.905 11.5739C106.209 14.5642 103.898 18.5372 102.994 23.4825C101.98 28.9872 102.916 33.2791 105.801 36.3739C108.253 38.9877 112.022 40.2946 117.114 40.2946C122.164 40.2946 126.388 39.0191 129.749 36.4837C133.811 33.4516 136.325 29.2382 137.324 23.8537C138.254 18.7201 137.46 14.6635 134.93 11.6837Z" fill="#F8F7F2"/>
<path d="M180.259 19.7291H168.518C169.198 17.0212 170.18 14.9406 171.487 13.4925C172.794 12.034 174.321 11.3126 176.072 11.3126C177.269 11.3126 178.262 11.6942 179.052 12.4574C179.841 13.2207 180.301 14.2557 180.432 15.547C180.521 16.5455 180.468 17.9308 180.259 19.7291ZM190.343 14.6635C188.681 9.75474 184.358 7.30298 177.358 7.30298C172.078 7.30298 167.629 8.71444 164.027 11.5165C160.096 14.5851 157.634 18.8404 156.636 24.2562C155.747 29.1075 156.578 32.9289 159.119 35.71C161.905 38.7734 166.448 40.2999 172.737 40.2999C175.262 40.2999 177.478 40.1012 179.392 39.7248C181.31 39.3432 183.621 38.627 186.329 37.5763L186.146 32.3643C182.387 34.9468 178.769 36.238 175.293 36.238C170.86 36.238 168.236 34.5076 167.42 31.0522C167.007 29.2957 167.054 26.8753 167.577 23.8014H190.568C190.84 22.139 190.986 20.6178 190.992 19.2481V19.0861C190.986 17.3819 190.772 15.9077 190.343 14.6635Z" fill="#F8F7F2"/>
<path d="M90.1723 24.0577C89.4561 27.9784 88.4628 30.8693 87.1977 32.7461C85.9326 34.6332 84.3434 35.569 82.4144 35.569C80.6214 35.569 79.4399 34.8057 78.8753 33.2845C78.1696 31.4026 78.1853 28.4333 78.9381 24.3661C79.7431 19.9749 80.7364 16.9272 81.923 15.2334C82.4563 14.4702 83.1881 13.8481 84.0925 13.3567C84.9969 12.8705 85.9274 12.6248 86.8684 12.6248C87.731 12.6614 88.489 12.9071 89.1476 13.3672C89.8116 13.8272 90.2507 14.4336 90.465 15.1759C91.0139 17.0474 90.9146 20.0115 90.1723 24.0577ZM91.4478 7.33447C87.5428 7.33447 84.1814 8.75116 81.3846 11.595L82.0171 8.15521H71.4625C71.5984 8.71457 71.6037 9.34712 71.4625 10.079L64.7398 46.6777C64.5986 47.441 64.3582 48.0735 64.0288 48.591H75.1846C75.0644 48.0944 75.0539 47.4567 75.1741 46.6777L76.9411 37.0589C78.6348 39.2179 81.1598 40.2948 84.4741 40.2948C86.492 40.2948 88.4471 39.9236 90.3395 39.1917C92.232 38.4599 93.8525 37.4405 95.2065 36.144C98.181 33.3002 100.157 29.1808 101.15 23.8068C102.154 18.323 101.663 14.1095 99.6604 11.1768C97.9458 8.61525 95.2065 7.33447 91.4478 7.33447Z" fill="#F8F7F2"/>
<path d="M159.478 14.0311L160.706 7.33447C155.897 7.44425 152.75 8.82958 151.255 11.48L151.872 8.15521H141.338C141.463 8.65707 141.469 9.28961 141.343 10.0842L136.246 37.8064C136.105 38.5487 135.87 39.1865 135.535 39.7197H146.681C146.565 39.2022 146.56 38.5644 146.675 37.8064L149.927 20.1056C150.685 15.981 153.288 13.9161 157.758 13.9161C158.202 13.9109 158.767 13.9527 159.478 14.0311Z" fill="#F8F7F2"/>
</svg>
