<svg width="74" height="16" viewBox="0 0 74 16" fill="none" xmlns="http://www.w3.org/2000/svg">
<path d="M30.6309 3.81841C29.5388 3.61017 28.4288 3.49518 27.3189 3.47342C26.7032 3.46099 26.0876 3.55112 25.4986 3.7376C24.7557 3.9676 24.1164 4.4742 23.7049 5.16418C23.2817 5.95672 23.0745 6.86115 23.113 7.76869C23.1041 8.38408 23.1781 8.99947 23.3379 9.5931C23.5214 10.3266 23.9506 10.9668 24.5426 11.402C25.2056 11.8246 25.9751 12.0329 26.7506 11.9987C27.3367 12.0018 27.9197 11.8961 28.4703 11.6879C28.4584 11.9055 28.4199 12.123 28.3608 12.3313C28.2483 12.6452 28.0233 12.9031 27.7362 13.0492C27.3514 13.2326 26.9312 13.3196 26.5109 13.301C25.6436 13.3134 24.7794 13.1829 23.9506 12.9125C23.9032 12.8938 23.85 12.9031 23.8115 12.9342C23.7701 12.9653 23.7464 13.015 23.7464 13.0679V14.7369C23.7464 14.8083 23.7878 14.8705 23.8529 14.8954C24.7083 15.1782 25.5992 15.3149 26.4961 15.2994C27.1176 15.3087 27.7362 15.231 28.3371 15.0663C29.0652 14.8798 29.7075 14.4354 30.1574 13.8045C30.5806 13.0679 30.7849 12.2194 30.7493 11.3616V3.98314C30.7493 3.90854 30.702 3.84017 30.6309 3.81841ZM25.4897 6.74616C25.5815 6.37009 25.7975 6.03753 26.0994 5.81375C26.4457 5.58998 26.8512 5.48431 27.2567 5.50295C27.6682 5.49052 28.0796 5.54025 28.4791 5.64903V9.54648C28.0115 9.78579 27.4965 9.91322 26.9755 9.91633C26.7328 9.92255 26.4901 9.87593 26.2652 9.78269C25.9692 9.65215 25.7324 9.40662 25.6022 9.09892C25.4305 8.67313 25.3506 8.21314 25.3684 7.75005C25.3654 7.41127 25.4068 7.07561 25.4897 6.74616Z" fill="white"/>
<path d="M33.8186 6.31115C33.9133 6.03453 34.0938 5.80143 34.3336 5.64603C34.6029 5.48752 34.9107 5.40982 35.2215 5.42226C35.4494 5.41915 35.6744 5.45023 35.8904 5.52171C36.142 5.59941 36.3611 5.77346 36.4972 6.00967C36.6334 6.27074 36.7044 6.5629 36.7014 6.86126H33.6913C33.712 6.67478 33.7564 6.49141 33.8186 6.31115ZM37.4621 4.02987C36.7754 3.62893 35.997 3.43624 35.2126 3.47042C34.6503 3.45799 34.0909 3.54502 33.5581 3.72839C32.8714 3.9646 32.2913 4.45566 31.9302 5.11456C31.5454 5.89157 31.3619 6.76181 31.3945 7.63827C31.3826 8.27852 31.4773 8.91877 31.6697 9.52794C31.9183 10.3205 32.4393 10.9856 33.1319 11.3927C33.9547 11.8372 34.8723 12.0516 35.7957 12.0143C36.5919 12.0299 37.3852 11.9491 38.1636 11.7781C38.1991 11.7657 38.2317 11.744 38.2554 11.7129C38.2761 11.6849 38.285 11.6476 38.285 11.6134V9.98793C38.285 9.94131 38.2702 9.89779 38.2376 9.86671C38.2021 9.82942 38.1518 9.81388 38.1014 9.82009C37.3911 9.97238 36.6659 10.0501 35.9408 10.0501C35.1475 10.0501 34.5704 9.90401 34.2093 9.64294C34.0376 9.52483 33.8985 9.36011 33.8067 9.1643C33.7327 8.99958 33.6883 8.82242 33.6765 8.63905H38.7082C38.7852 8.63905 38.8503 8.58 38.8592 8.49919C38.9065 8.1542 38.9302 7.80921 38.9302 7.46111C38.9391 6.87991 38.8621 6.30182 38.6993 5.74549C38.501 5.03375 38.063 4.42458 37.4621 4.02987Z" fill="white"/>
<path d="M8.70783 1.33114C7.86132 0.774801 6.7721 0.501296 5.45201 0.501296C4.6499 0.485756 3.84778 0.610076 3.08415 0.868041C2.1074 1.19438 1.28161 1.89058 0.766597 2.81987C0.251586 3.75228 0 4.94264 0 6.39409C0.071036 8.07552 0.54165 9.47102 1.28753 10.45C1.98605 11.4135 3.07231 11.9823 4.22664 11.9885C4.62622 12.0009 5.0258 11.945 5.41058 11.8269C5.80423 11.7181 6.14462 11.4601 6.36956 11.1058C6.52939 10.8199 6.62411 10.5029 6.64779 10.1734C6.65371 10.1144 6.63003 10.0584 6.58563 10.0242C6.54123 9.99006 6.485 9.98073 6.43468 10.0056C6.38436 10.0242 6.33108 10.0398 6.27781 10.0522C6.0055 10.0988 5.72728 10.1237 5.45201 10.1206C4.98436 10.1299 4.51967 10.0522 4.07865 9.88438C3.51332 9.66993 3.05159 9.23481 2.78224 8.66915C2.45962 7.94498 2.30867 7.15244 2.33827 6.35368C2.32939 5.79735 2.39747 5.24412 2.53658 4.70644C2.68457 4.07862 3.04271 3.5285 3.54588 3.15243C4.11713 2.78258 4.78309 2.60542 5.45201 2.6365C5.90783 2.62718 6.36364 2.70488 6.79282 2.86649C7.34335 3.08095 7.79324 3.50985 8.05667 4.05997C8.37041 4.77481 8.5184 5.55492 8.4888 6.34125C8.4888 7.44459 8.29345 8.29619 7.92348 8.89914C7.89684 8.95198 7.89684 9.01414 7.92348 9.06698C7.95011 9.11981 8.00043 9.154 8.05667 9.154H8.37633C8.91206 9.16954 9.43595 8.98928 9.85625 8.64429C10.2262 8.31795 10.4985 7.88593 10.6406 7.40108C10.7442 7.07785 10.8004 6.74218 10.8093 6.4003C10.8241 5.53317 10.7116 4.67225 10.4749 3.84241C10.1966 2.81055 9.56618 1.91544 8.70783 1.33114Z" fill="white"/>
<path d="M22.3149 11.8337H20.9859C20.5478 11.8337 20.1926 11.4607 20.1926 11.0008V10.9977V3.80882C20.1926 3.71869 20.2637 3.6441 20.3495 3.64099H22.3119C22.4007 3.64099 22.4717 3.71558 22.4717 3.80882V11.669C22.4717 11.7622 22.4007 11.8337 22.3149 11.8337Z" fill="white"/>
<path d="M20.3525 0.837769H22.3119C22.4007 0.837769 22.4717 0.912361 22.4717 1.0056V2.6342C22.4717 2.72744 22.4007 2.80203 22.3119 2.80203H20.3525C20.2637 2.80203 20.1926 2.72744 20.1926 2.6342V1.0056C20.1926 0.915469 20.2637 0.837769 20.3525 0.837769Z" fill="white"/>
<path fill-rule="evenodd" clip-rule="evenodd" d="M57.0385 4.11988L55.896 9.18594L54.197 4.1665C54.0609 3.75003 53.685 3.47342 53.2677 3.47342H53.1848C52.7674 3.47342 52.3945 3.75314 52.2584 4.1665L50.5594 9.18594L49.4288 4.11988C49.3429 3.7407 49.0203 3.47342 48.6503 3.47342H47.7801C47.6943 3.47342 47.6233 3.5449 47.6203 3.63503C47.6203 3.65057 47.6203 3.663 47.6262 3.67854L49.5649 11.7096C49.5827 11.7842 49.6478 11.834 49.7188 11.834H51.1277C51.1928 11.834 51.252 11.7905 51.2757 11.7283L53.2381 6.35454L55.2004 11.7283C55.2241 11.7905 55.2833 11.834 55.3484 11.834H56.7573C56.8283 11.834 56.8905 11.7811 56.9112 11.7096L58.8499 3.67854C58.8706 3.59152 58.8203 3.50139 58.7374 3.47963C58.7256 3.47652 58.7108 3.47342 58.696 3.47342H57.8258C57.4499 3.47031 57.1243 3.7376 57.0385 4.11988Z" fill="white"/>
<path fill-rule="evenodd" clip-rule="evenodd" d="M9.8358 13.7641H8.40028V13.7082C8.39436 13.6553 8.39436 13.6056 8.40028 13.5528C8.40324 13.5248 8.41212 13.4999 8.42988 13.4782C8.4506 13.4595 8.47132 13.444 8.49796 13.4347C8.52755 13.4347 8.56899 13.4067 8.61635 13.3881L9.91572 13.0244C10.0963 12.9778 10.265 12.8877 10.41 12.7633C10.5846 12.6017 10.706 12.3811 10.7504 12.1417C10.7918 11.9086 10.8096 11.6693 10.8037 11.4331V11.2622C10.8066 11.0788 10.7741 10.8954 10.706 10.7276C10.6379 10.5567 10.5284 10.4075 10.3923 10.2925H10.3715C10.1939 10.1495 9.98675 10.0501 9.76477 10.0065C9.54278 9.96303 9.31487 9.94438 9.08992 9.94749H8.60747C8.23453 9.92884 7.86455 10.0376 7.55377 10.2583C7.4117 10.3702 7.29922 10.5194 7.22523 10.6903C7.14531 10.8861 7.10683 11.0975 7.10979 11.3119C7.10979 11.4114 7.13051 11.5108 7.16899 11.6041C7.23115 11.7408 7.33474 11.8496 7.46497 11.9149C7.56561 11.9615 7.67216 11.9926 7.78168 12.005C7.83495 12.005 7.95039 12.005 7.95039 12.005H8.36772V11.7439C8.36772 11.6227 8.36772 11.4922 8.36772 11.4331C8.37364 11.3647 8.38548 11.2995 8.4062 11.2342C8.41508 11.2031 8.42988 11.1752 8.4506 11.1503C8.4802 11.113 8.52164 11.0881 8.56603 11.0757C8.64891 11.0539 8.73474 11.0415 8.82058 11.0446H8.93601C9.01889 11.0384 9.10472 11.0384 9.1876 11.0446C9.23496 11.0508 9.28231 11.0633 9.32671 11.0788C9.37703 11.0943 9.41847 11.1316 9.4451 11.1783C9.48654 11.2591 9.5043 11.3523 9.49838 11.4424V11.5046C9.50134 11.5761 9.50134 11.6445 9.49838 11.7159C9.49542 11.747 9.4895 11.7781 9.48062 11.8061C9.46582 11.8434 9.44214 11.8713 9.40959 11.8931C9.34447 11.9366 9.27047 11.9708 9.19352 11.9895L7.86751 12.4215C7.53009 12.5116 7.26371 12.7789 7.16603 13.1301C7.10683 13.3321 7.07724 13.5404 7.0802 13.7517V14.8022C7.0802 14.8923 7.15123 14.9669 7.23707 14.9669H10.6527C10.7386 14.9669 10.8096 14.8923 10.8096 14.8022C10.8155 14.2334 10.3804 13.7703 9.83876 13.7641H9.8358Z" fill="white"/>
<path fill-rule="evenodd" clip-rule="evenodd" d="M73.7555 5.79813C73.5454 5.07085 73.0896 4.44925 72.4739 4.05142C71.7606 3.63806 70.9496 3.43604 70.1357 3.47333C69.5437 3.47023 68.9547 3.5759 68.3953 3.78414V1.33502C68.3953 0.875037 68.0431 0.505183 67.605 0.502075H66.868C66.7822 0.502075 66.7111 0.576667 66.7111 0.6668V11.4889C66.7111 11.5635 66.7615 11.6288 66.8295 11.6474C67.8536 11.8836 68.9014 11.9955 69.9522 11.9862C70.5471 11.9986 71.1391 11.9054 71.7044 11.7127C72.4325 11.4609 73.0452 10.9388 73.427 10.2395C73.8355 9.41274 74.0338 8.48967 73.9953 7.56037C74.0042 6.96363 73.9243 6.37 73.7555 5.79813ZM68.3953 6.41973V5.42206C68.9429 5.17342 69.5319 5.0522 70.1268 5.06153C70.4583 5.05531 70.7898 5.10815 71.1065 5.21693C71.4942 5.35057 71.8198 5.63029 72.0181 6.00636C72.246 6.47878 72.3526 7.00093 72.3319 7.52929C72.3407 7.97374 72.2875 8.41818 72.175 8.84709C72.0566 9.34126 71.7754 9.77327 71.3818 10.0716C70.9348 10.3669 70.4109 10.5099 69.8841 10.4819C69.3839 10.4912 68.8866 10.4291 68.4042 10.2985L68.3953 6.41973Z" fill="white"/>
<path fill-rule="evenodd" clip-rule="evenodd" d="M64.693 3.98298C64.0448 3.61623 63.3166 3.44218 62.5826 3.47326C62.035 3.46083 61.4904 3.54164 60.9695 3.7188C60.2917 3.95811 59.7234 4.45229 59.3741 5.10808C58.9953 5.88508 58.8147 6.75532 58.8473 7.62867C58.8354 8.26893 58.9242 8.90607 59.1078 9.51524C59.3327 10.2953 59.83 10.9605 60.4959 11.38C61.2714 11.8245 62.1445 12.0389 63.0266 12.0016C63.805 12.0234 64.5835 11.9177 65.3323 11.6908C65.3974 11.6691 65.4418 11.6038 65.4418 11.5323V10.3637C65.4418 10.314 65.4181 10.2643 65.3826 10.2332C65.3441 10.2052 65.2938 10.1959 65.2465 10.2083C64.5746 10.4259 63.876 10.5316 63.1746 10.5191C62.775 10.5284 62.3754 10.4756 61.9906 10.3699C61.5526 10.2581 61.1619 9.98766 60.8925 9.60848C60.6587 9.22619 60.5344 8.78486 60.5344 8.33109H65.8621C65.9391 8.33109 66.0071 8.26893 66.016 8.18812C66.0604 7.8338 66.0841 7.47327 66.0841 7.11585C66.093 6.58749 66.0219 6.06535 65.868 5.56185C65.6815 4.89984 65.2613 4.33729 64.693 3.98298ZM60.7001 6.06535C60.8274 5.71414 61.0642 5.42199 61.375 5.23551C61.7479 5.03349 62.1623 4.93714 62.5826 4.95579C62.8579 4.94957 63.1331 4.99308 63.3966 5.08011C63.7162 5.18889 63.9856 5.41577 64.1572 5.71725C64.3259 6.04359 64.4207 6.41033 64.4295 6.7833H60.5374C60.561 6.53776 60.6143 6.29845 60.7001 6.06535Z" fill="white"/>
<path d="M46.795 5.29161C46.6411 4.72595 46.2948 4.2411 45.8213 3.92408C45.2826 3.60085 44.6669 3.44545 44.0454 3.47342C43.2225 3.48585 42.4263 3.79355 41.79 4.34056C41.7219 3.93962 41.3934 3.64747 41.0056 3.64436H39.721C39.6352 3.64436 39.5642 3.71895 39.5642 3.80909V11.6724C39.5642 11.7625 39.6352 11.8371 39.721 11.8371H41.6893C41.7752 11.8371 41.8462 11.7625 41.8462 11.6724V6.20536C42.3198 5.76092 42.9295 5.50606 43.5659 5.48431C43.7405 5.4812 43.9122 5.50606 44.0779 5.5589C44.2703 5.62106 44.4361 5.7547 44.5397 5.93808C44.658 6.16807 44.7113 6.42603 44.6995 6.684V11.0104C44.6965 11.4734 45.0517 11.8464 45.4927 11.8495H45.4957H46.0285C46.28 11.8495 46.5405 11.8495 46.8187 11.8495C46.8602 11.8495 46.9016 11.834 46.9312 11.8029C46.9608 11.7718 46.9756 11.7314 46.9756 11.6879V6.684C46.9845 6.21469 46.9253 5.74538 46.795 5.29161Z" fill="white"/>
<path d="M19.5337 3.90216C19.584 3.82757 19.5692 3.725 19.4982 3.67217C19.4715 3.65041 19.439 3.64109 19.4064 3.64109H17.2072C17.1569 3.64109 17.1096 3.66595 17.08 3.70636L15.5024 5.92548L14.1172 3.97986C13.9662 3.76541 13.7294 3.64109 13.4749 3.64109H11.6161C11.5303 3.63798 11.4622 3.70946 11.4593 3.7996C11.4593 3.83689 11.4711 3.87419 11.4918 3.90216L14.206 7.73434L11.4859 11.5696C11.4326 11.6411 11.4474 11.7468 11.5155 11.7996C11.5421 11.8214 11.5747 11.8338 11.6102 11.8338H13.7886C13.839 11.8338 13.8834 11.8089 13.913 11.7654L15.4965 9.54631L16.8846 11.4888C17.0356 11.7033 17.2753 11.8276 17.5269 11.8276H19.3946C19.4804 11.8276 19.5514 11.7561 19.5544 11.666C19.5544 11.6287 19.5426 11.5945 19.5218 11.5634L16.7988 7.72812L19.5337 3.90216Z" fill="white"/>
</svg>
