<svg width="30" height="30" viewBox="0 0 30 30" fill="none" xmlns="http://www.w3.org/2000/svg">
<path fill-rule="evenodd" clip-rule="evenodd" d="M27.8571 15C27.8571 22.1008 22.1008 27.8571 15 27.8571C7.8992 27.8571 2.14286 22.1008 2.14286 15C2.14286 7.8992 7.8992 2.14286 15 2.14286C22.1008 2.14286 27.8571 7.8992 27.8571 15ZM30 15C30 23.2843 23.2843 30 15 30C6.71573 30 0 23.2843 0 15C0 6.71573 6.71573 0 15 0C23.2843 0 30 6.71573 30 15ZM19.0082 16.7518C19.2957 16.8564 20.8398 17.6123 21.1535 17.7686C21.2149 17.7992 21.2723 17.8267 21.3255 17.8523C21.5445 17.9575 21.6925 18.0285 21.756 18.1334C21.8345 18.2636 21.8345 18.8893 21.5732 19.6191C21.311 20.349 20.0569 21.0149 19.4536 21.1049C18.9126 21.1854 18.2284 21.2189 17.476 20.9809C17.0199 20.8368 16.4353 20.6446 15.686 20.3225C12.7442 19.0583 10.7556 16.2213 10.3781 15.6827C10.3515 15.6447 10.3328 15.6181 10.3225 15.6043L10.3202 15.6014C10.1551 15.3822 9.04018 13.9031 9.04018 12.3719C9.04018 10.9333 9.74956 10.1793 10.0767 9.83165C10.0994 9.80755 10.1202 9.78541 10.1388 9.76513C10.4264 9.45211 10.7667 9.37395 10.9761 9.37395C11.1855 9.37395 11.3949 9.37593 11.5778 9.38501C11.6003 9.38611 11.6236 9.38597 11.6478 9.38583C11.8308 9.38473 12.0589 9.38336 12.2842 9.92144C12.3728 10.1333 12.5034 10.4497 12.6404 10.7818C12.9081 11.4303 13.2003 12.1383 13.2519 12.2417C13.3305 12.398 13.3828 12.5807 13.2781 12.7891C13.1734 12.9976 12.8331 13.4381 12.4932 13.8581C12.4786 13.8761 12.4636 13.8939 12.4486 13.9117C12.32 14.0639 12.1919 14.2157 12.3556 14.4959C12.5388 14.809 13.1691 15.8321 14.1023 16.6606C15.1058 17.5516 15.9782 17.9281 16.4202 18.1188C16.5063 18.1559 16.576 18.186 16.6272 18.2115C16.9414 18.3682 17.1242 18.3418 17.3074 18.1334C17.4907 17.9249 18.0924 17.2207 18.3018 16.9081C18.5108 16.5955 18.7206 16.6476 19.0082 16.7518Z" fill="#F8F7F2"/>
</svg>
